<?xml version="1.0" standalone="no"?>
<!DOCTYPE svg PUBLIC "-//W3C//DTD SVG 20010904//EN"
 "http://www.w3.org/TR/2001/REC-SVG-20010904/DTD/svg10.dtd">
<svg version="1.0" xmlns="http://www.w3.org/2000/svg"
 width="512.000000pt" height="512.000000pt" viewBox="0 0 512.000000 512.000000"
 preserveAspectRatio="xMidYMid meet">
<metadata>
Created by potrace 1.11, written by Peter Selinger 2001-2013
</metadata>
<g transform="translate(0.000000,512.000000) scale(0.100000,-0.100000)"
fill="#000000" stroke="none">
<path d="M320 4947 c-49 -16 -133 -102 -148 -153 -18 -60 -18 -3608 0 -3668
16 -55 99 -138 154 -154 31 -9 284 -12 1037 -12 l995 0 46 -84 c320 -587 1013
-857 1638 -640 201 70 371 176 518 324 190 190 319 432 376 705 25 124 26 385
1 505 -88 414 -333 750 -693 946 l-84 46 0 995 c0 753 -3 1006 -12 1037 -16
55 -99 138 -154 154 -56 16 -3621 16 -3674 -1z m3680 -1458 c0 -635 -1 -671
-17 -664 -10 4 -61 16 -113 28 -131 28 -395 30 -525 3 -274 -57 -514 -185
-705 -376 -191 -191 -319 -431 -376 -705 -27 -130 -25 -394 3 -525 12 -52 24
-103 28 -113 7 -16 -43 -17 -959 -17 l-967 0 -24 25 -25 24 0 1496 0 1495
1840 0 1840 0 0 -671z"/>
</g>
</svg>
